<?xml version="1.0" standalone="no"?>
<!DOCTYPE svg PUBLIC "-//W3C//DTD SVG 20010904//EN"
 "http://www.w3.org/TR/2001/REC-SVG-20010904/DTD/svg10.dtd">
<svg version="1.0" xmlns="http://www.w3.org/2000/svg"
 width="421.000000pt" height="389.000000pt" viewBox="0 0 421.000000 389.000000"
 preserveAspectRatio="xMidYMid meet">

<g transform="translate(0.000000,389.000000) scale(0.100000,-0.100000)"
fill="#000000" stroke="none">
<path d="M1270 3363 c-57 -18 -90 -62 -90 -117 l0 -26 -307 0 c-181 0 -323 -4
-345 -10 -48 -14 -97 -55 -114 -97 -12 -27 -14 -202 -14 -978 0 -1020 -2 -971
52 -1022 58 -54 42 -53 787 -53 l689 0 41 -76 c243 -450 779 -638 1253 -439
220 93 425 299 517 519 154 370 81 776 -193 1063 -96 102 -194 172 -312 225
l-74 33 0 353 c0 386 0 385 -60 435 -17 15 -47 31 -68 37 -22 6 -162 10 -339
10 l-303 0 0 36 c0 46 -14 70 -50 89 -78 40 -160 -8 -160 -95 l0 -30 -390 0
-390 0 0 30 c0 59 -34 99 -95 113 -11 3 -27 3 -35 0z m-90 -368 c0 -57 21
-100 60 -120 37 -19 63 -19 100 0 39 20 60 63 60 120 l0 45 390 0 390 0 0 -50
c0 -88 38 -130 116 -130 26 0 44 8 65 29 26 26 29 36 29 90 l0 61 300 0 300 0
0 -305 0 -305 -39 0 c-68 0 -71 4 -71 86 0 63 -3 77 -24 101 l-24 28 -187 0
-187 0 -24 -28 c-23 -26 -24 -35 -24 -152 l0 -125 -42 -21 c-24 -12 -71 -41
-105 -65 l-62 -44 -150 0 c-144 0 -151 -1 -178 -24 -27 -24 -28 -27 -31 -144
-4 -134 6 -171 55 -192 l28 -13 -26 -81 c-37 -113 -53 -246 -45 -364 3 -53 9
-109 12 -124 l6 -28 -651 0 -651 0 0 900 0 900 305 0 305 0 0 -45z m1852 -816
c281 -78 489 -308 545 -603 29 -154 6 -304 -74 -466 -39 -80 -60 -108 -137
-185 -51 -51 -119 -107 -156 -128 -368 -212 -844 -74 -1039 302 -67 130 -86
207 -85 351 0 142 15 213 69 326 85 177 240 317 427 385 141 52 305 58 450 18z"/>
<path d="M743 2616 c-27 -24 -28 -27 -31 -141 -6 -201 -2 -205 241 -205 l179
0 29 29 c29 29 29 30 29 154 0 120 -1 127 -26 156 l-26 31 -183 0 c-180 0
-184 -1 -212 -24z"/>
<path d="M1314 2625 c-37 -25 -46 -65 -42 -188 3 -106 5 -118 27 -141 l24 -26
188 0 187 0 26 31 c25 29 26 36 26 156 0 124 0 125 -29 154 l-29 29 -179 0
c-140 0 -183 -3 -199 -15z"/>
<path d="M1879 2611 l-29 -29 0 -130 c0 -123 1 -130 25 -156 l24 -26 186 0
c184 0 186 0 210 25 24 23 25 29 25 157 -1 190 2 188 -240 188 l-172 0 -29
-29z"/>
<path d="M758 2205 c-42 -24 -48 -44 -48 -179 0 -118 1 -127 24 -153 l24 -28
180 -3 179 -3 32 26 31 27 0 137 c0 135 -1 138 -26 162 -25 23 -31 24 -197 26
-138 2 -177 0 -199 -12z"/>
<path d="M1295 2184 c-24 -26 -25 -33 -25 -156 l0 -130 29 -29 29 -29 171 0
c100 0 180 4 194 11 37 17 50 49 55 136 6 110 -4 170 -33 199 -24 24 -28 24
-210 24 l-186 0 -24 -26z"/>
<path d="M728 1741 l-33 -29 0 -131 c0 -129 0 -131 28 -158 27 -28 28 -28 189
-31 183 -4 200 -1 234 35 23 25 24 32 24 154 0 121 -1 129 -24 156 l-24 28
-180 3 -180 3 -34 -30z"/>
<path d="M1289 1741 c-29 -29 -29 -29 -29 -156 0 -127 0 -127 29 -156 l29 -29
177 0 c107 0 184 4 197 11 33 18 48 70 48 174 0 104 -15 156 -48 174 -13 7
-90 11 -197 11 l-177 0 -29 -29z"/>
<path d="M3018 1956 c-8 -7 -47 -83 -88 -169 l-75 -157 -44 0 c-172 0 -234
-241 -85 -328 33 -20 49 -22 109 -19 l70 5 227 -110 c218 -106 229 -110 251
-95 13 9 30 29 37 46 26 63 18 69 -213 181 l-214 103 0 42 c0 24 -5 56 -12 72
-11 27 -6 41 69 196 44 92 80 176 80 187 0 24 -46 60 -76 60 -12 0 -29 -6 -36
-14z"/>
</g>
</svg>
